<?xml version="1.0" encoding="UTF-8" standalone="no"?>
<svg xmlns="http://www.w3.org/2000/svg" version="1.1" xmlns:xlink="http://www.w3.org/1999/xlink" viewBox="-10 -50 1220 929">
     <!-- min (01, 01), max (07, 04) -->
  <defs>
    <g id="town"><circle r="10"/></g>
    <g id="gate"><text font-size="20pt" dy="-20px" dx="40px" font-family="Optima, Helvetica, sans-serif" text-anchor="middle">☼</text></g>
    <g id="green"><circle r="48" fill="green" opacity="0.3"/></g>
    <g id="orange"><circle r="48" fill="orange" opacity="0.3"/></g>
    <g id="red"><circle r="48" fill="red" opacity="0.3"/></g>  </defs>
  <g id="lines">
  </g>
  <g id="things">
    <use x="150.0" y="86.6" xlink:href="#town"/>
    <use x="150.0" y="86.6" xlink:href="#gate"/>
    <use x="150.0" y="259.8" xlink:href="#empty"/>
    <use x="150.0" y="433.0" xlink:href="#empty"/>
    <use x="150.0" y="606.2" xlink:href="#town"/>
    <use x="300.0" y="173.2" xlink:href="#empty"/>
    <use x="300.0" y="346.4" xlink:href="#town"/>
    <use x="300.0" y="346.4" xlink:href="#gate"/>
    <use x="300.0" y="519.6" xlink:href="#town"/>
    <use x="300.0" y="519.6" xlink:href="#gate"/>
    <use x="300.0" y="692.8" xlink:href="#town"/>
    <use x="450.0" y="86.6" xlink:href="#town"/>
    <use x="450.0" y="86.6" xlink:href="#gate"/>
    <use x="450.0" y="259.8" xlink:href="#town"/>
    <use x="450.0" y="433.0" xlink:href="#empty"/>
    <use x="450.0" y="606.2" xlink:href="#town"/>
    <use x="600.0" y="173.2" xlink:href="#town"/>
    <use x="600.0" y="173.2" xlink:href="#gate"/>
    <use x="600.0" y="346.4" xlink:href="#town"/>
    <use x="600.0" y="519.6" xlink:href="#town"/>
    <use x="600.0" y="692.8" xlink:href="#town"/>
    <use x="600.0" y="692.8" xlink:href="#gate"/>
    <use x="750.0" y="86.6" xlink:href="#town"/>
    <use x="750.0" y="86.6" xlink:href="#gate"/>
    <use x="750.0" y="259.8" xlink:href="#empty"/>
    <use x="750.0" y="433.0" xlink:href="#town"/>
    <use x="750.0" y="606.2" xlink:href="#empty"/>
    <use x="900.0" y="173.2" xlink:href="#empty"/>
    <use x="900.0" y="346.4" xlink:href="#town"/>
    <use x="900.0" y="519.6" xlink:href="#town"/>
    <use x="900.0" y="519.6" xlink:href="#gate"/>
    <use x="900.0" y="692.8" xlink:href="#town"/>
    <use x="1050.0" y="86.6" xlink:href="#town"/>
    <use x="1050.0" y="86.6" xlink:href="#gate"/>
    <use x="1050.0" y="259.8" xlink:href="#town"/>
    <use x="1050.0" y="259.8" xlink:href="#gate"/>
    <use x="1050.0" y="433.0" xlink:href="#empty"/>
    <use x="1050.0" y="606.2" xlink:href="#town"/>
  </g>
  <g id="coordinates">
    <text text-anchor="middle" x="150.0" y="17.3" font-size="16pt" dy="15px" font-family="Optima, Helvetica, sans-serif" fill-opacity="1">01.01</text>
    <text text-anchor="middle" x="150.0" y="190.5" font-size="16pt" dy="15px" font-family="Optima, Helvetica, sans-serif" fill-opacity="1">01.02</text>
    <text text-anchor="middle" x="150.0" y="363.7" font-size="16pt" dy="15px" font-family="Optima, Helvetica, sans-serif" fill-opacity="1">01.03</text>
    <text text-anchor="middle" x="150.0" y="536.9" font-size="16pt" dy="15px" font-family="Optima, Helvetica, sans-serif" fill-opacity="1">01.04</text>
    <text text-anchor="middle" x="300.0" y="103.9" font-size="16pt" dy="15px" font-family="Optima, Helvetica, sans-serif" fill-opacity="1">02.01</text>
    <text text-anchor="middle" x="300.0" y="277.1" font-size="16pt" dy="15px" font-family="Optima, Helvetica, sans-serif" fill-opacity="1">02.02</text>
    <text text-anchor="middle" x="300.0" y="450.3" font-size="16pt" dy="15px" font-family="Optima, Helvetica, sans-serif" fill-opacity="1">02.03</text>
    <text text-anchor="middle" x="300.0" y="623.5" font-size="16pt" dy="15px" font-family="Optima, Helvetica, sans-serif" fill-opacity="1">02.04</text>
    <text text-anchor="middle" x="450.0" y="17.3" font-size="16pt" dy="15px" font-family="Optima, Helvetica, sans-serif" fill-opacity="1">03.01</text>
    <text text-anchor="middle" x="450.0" y="190.5" font-size="16pt" dy="15px" font-family="Optima, Helvetica, sans-serif" fill-opacity="1">03.02</text>
    <text text-anchor="middle" x="450.0" y="363.7" font-size="16pt" dy="15px" font-family="Optima, Helvetica, sans-serif" fill-opacity="1">03.03</text>
    <text text-anchor="middle" x="450.0" y="536.9" font-size="16pt" dy="15px" font-family="Optima, Helvetica, sans-serif" fill-opacity="1">03.04</text>
    <text text-anchor="middle" x="600.0" y="103.9" font-size="16pt" dy="15px" font-family="Optima, Helvetica, sans-serif" fill-opacity="1">04.01</text>
    <text text-anchor="middle" x="600.0" y="277.1" font-size="16pt" dy="15px" font-family="Optima, Helvetica, sans-serif" fill-opacity="1">04.02</text>
    <text text-anchor="middle" x="600.0" y="450.3" font-size="16pt" dy="15px" font-family="Optima, Helvetica, sans-serif" fill-opacity="1">04.03</text>
    <text text-anchor="middle" x="600.0" y="623.5" font-size="16pt" dy="15px" font-family="Optima, Helvetica, sans-serif" fill-opacity="1">04.04</text>
    <text text-anchor="middle" x="750.0" y="17.3" font-size="16pt" dy="15px" font-family="Optima, Helvetica, sans-serif" fill-opacity="1">05.01</text>
    <text text-anchor="middle" x="750.0" y="190.5" font-size="16pt" dy="15px" font-family="Optima, Helvetica, sans-serif" fill-opacity="1">05.02</text>
    <text text-anchor="middle" x="750.0" y="363.7" font-size="16pt" dy="15px" font-family="Optima, Helvetica, sans-serif" fill-opacity="1">05.03</text>
    <text text-anchor="middle" x="750.0" y="536.9" font-size="16pt" dy="15px" font-family="Optima, Helvetica, sans-serif" fill-opacity="1">05.04</text>
    <text text-anchor="middle" x="900.0" y="103.9" font-size="16pt" dy="15px" font-family="Optima, Helvetica, sans-serif" fill-opacity="1">06.01</text>
    <text text-anchor="middle" x="900.0" y="277.1" font-size="16pt" dy="15px" font-family="Optima, Helvetica, sans-serif" fill-opacity="1">06.02</text>
    <text text-anchor="middle" x="900.0" y="450.3" font-size="16pt" dy="15px" font-family="Optima, Helvetica, sans-serif" fill-opacity="1">06.03</text>
    <text text-anchor="middle" x="900.0" y="623.5" font-size="16pt" dy="15px" font-family="Optima, Helvetica, sans-serif" fill-opacity="1">06.04</text>
    <text text-anchor="middle" x="1050.0" y="17.3" font-size="16pt" dy="15px" font-family="Optima, Helvetica, sans-serif" fill-opacity="1">07.01</text>
    <text text-anchor="middle" x="1050.0" y="190.5" font-size="16pt" dy="15px" font-family="Optima, Helvetica, sans-serif" fill-opacity="1">07.02</text>
    <text text-anchor="middle" x="1050.0" y="363.7" font-size="16pt" dy="15px" font-family="Optima, Helvetica, sans-serif" fill-opacity="1">07.03</text>
    <text text-anchor="middle" x="1050.0" y="536.9" font-size="16pt" dy="15px" font-family="Optima, Helvetica, sans-serif" fill-opacity="1">07.04</text>
  </g>
  <g id="hexes">
    <polygon id="hex0101" fill="none" stroke="black" stroke-width="3" points="50.0,86.6 100.0,173.2 200.0,173.2 250.0,86.6 200.0,0.0 100.0,0.0"/>
    <polygon id="hex0102" fill="none" stroke="black" stroke-width="3" points="50.0,259.8 100.0,346.4 200.0,346.4 250.0,259.8 200.0,173.2 100.0,173.2"/>
    <polygon id="hex0103" fill="none" stroke="black" stroke-width="3" points="50.0,433.0 100.0,519.6 200.0,519.6 250.0,433.0 200.0,346.4 100.0,346.4"/>
    <polygon id="hex0104" fill="none" stroke="black" stroke-width="3" points="50.0,606.2 100.0,692.8 200.0,692.8 250.0,606.2 200.0,519.6 100.0,519.6"/>
    <polygon id="hex0201" fill="none" stroke="black" stroke-width="3" points="200.0,173.2 250.0,259.8 350.0,259.8 400.0,173.2 350.0,86.6 250.0,86.6"/>
    <polygon id="hex0202" fill="none" stroke="black" stroke-width="3" points="200.0,346.4 250.0,433.0 350.0,433.0 400.0,346.4 350.0,259.8 250.0,259.8"/>
    <polygon id="hex0203" fill="none" stroke="black" stroke-width="3" points="200.0,519.6 250.0,606.2 350.0,606.2 400.0,519.6 350.0,433.0 250.0,433.0"/>
    <polygon id="hex0204" fill="none" stroke="black" stroke-width="3" points="200.0,692.8 250.0,779.4 350.0,779.4 400.0,692.8 350.0,606.2 250.0,606.2"/>
    <polygon id="hex0301" fill="none" stroke="black" stroke-width="3" points="350.0,86.6 400.0,173.2 500.0,173.2 550.0,86.6 500.0,0.0 400.0,0.0"/>
    <polygon id="hex0302" fill="none" stroke="black" stroke-width="3" points="350.0,259.8 400.0,346.4 500.0,346.4 550.0,259.8 500.0,173.2 400.0,173.2"/>
    <polygon id="hex0303" fill="none" stroke="black" stroke-width="3" points="350.0,433.0 400.0,519.6 500.0,519.6 550.0,433.0 500.0,346.4 400.0,346.4"/>
    <polygon id="hex0304" fill="none" stroke="black" stroke-width="3" points="350.0,606.2 400.0,692.8 500.0,692.8 550.0,606.2 500.0,519.6 400.0,519.6"/>
    <polygon id="hex0401" fill="none" stroke="black" stroke-width="3" points="500.0,173.2 550.0,259.8 650.0,259.8 700.0,173.2 650.0,86.6 550.0,86.6"/>
    <polygon id="hex0402" fill="none" stroke="black" stroke-width="3" points="500.0,346.4 550.0,433.0 650.0,433.0 700.0,346.4 650.0,259.8 550.0,259.8"/>
    <polygon id="hex0403" fill="none" stroke="black" stroke-width="3" points="500.0,519.6 550.0,606.2 650.0,606.2 700.0,519.6 650.0,433.0 550.0,433.0"/>
    <polygon id="hex0404" fill="none" stroke="black" stroke-width="3" points="500.0,692.8 550.0,779.4 650.0,779.4 700.0,692.8 650.0,606.2 550.0,606.2"/>
    <polygon id="hex0501" fill="none" stroke="black" stroke-width="3" points="650.0,86.6 700.0,173.2 800.0,173.2 850.0,86.6 800.0,0.0 700.0,0.0"/>
    <polygon id="hex0502" fill="none" stroke="black" stroke-width="3" points="650.0,259.8 700.0,346.4 800.0,346.4 850.0,259.8 800.0,173.2 700.0,173.2"/>
    <polygon id="hex0503" fill="none" stroke="black" stroke-width="3" points="650.0,433.0 700.0,519.6 800.0,519.6 850.0,433.0 800.0,346.4 700.0,346.4"/>
    <polygon id="hex0504" fill="none" stroke="black" stroke-width="3" points="650.0,606.2 700.0,692.8 800.0,692.8 850.0,606.2 800.0,519.6 700.0,519.6"/>
    <polygon id="hex0601" fill="none" stroke="black" stroke-width="3" points="800.0,173.2 850.0,259.8 950.0,259.8 1000.0,173.2 950.0,86.6 850.0,86.6"/>
    <polygon id="hex0602" fill="none" stroke="black" stroke-width="3" points="800.0,346.4 850.0,433.0 950.0,433.0 1000.0,346.4 950.0,259.8 850.0,259.8"/>
    <polygon id="hex0603" fill="none" stroke="black" stroke-width="3" points="800.0,519.6 850.0,606.2 950.0,606.2 1000.0,519.6 950.0,433.0 850.0,433.0"/>
    <polygon id="hex0604" fill="none" stroke="black" stroke-width="3" points="800.0,692.8 850.0,779.4 950.0,779.4 1000.0,692.8 950.0,606.2 850.0,606.2"/>
    <polygon id="hex0701" fill="none" stroke="black" stroke-width="3" points="950.0,86.6 1000.0,173.2 1100.0,173.2 1150.0,86.6 1100.0,0.0 1000.0,0.0"/>
    <polygon id="hex0702" fill="none" stroke="black" stroke-width="3" points="950.0,259.8 1000.0,346.4 1100.0,346.4 1150.0,259.8 1100.0,173.2 1000.0,173.2"/>
    <polygon id="hex0703" fill="none" stroke="black" stroke-width="3" points="950.0,433.0 1000.0,519.6 1100.0,519.6 1150.0,433.0 1100.0,346.4 1000.0,346.4"/>
    <polygon id="hex0704" fill="none" stroke="black" stroke-width="3" points="950.0,606.2 1000.0,692.8 1100.0,692.8 1150.0,606.2 1100.0,519.6 1000.0,519.6"/>
  </g>
  <g id="labels">
    <g><text text-anchor="middle" x="150.0" y="155.9" font-size="16pt" font-family="Optima, Helvetica, sans-serif" stroke="white" stroke-width="4pt" opacity="0.8">Asgard</text><text text-anchor="middle" x="150.0" y="155.9" font-size="16pt" font-family="Optima, Helvetica, sans-serif">Asgard</text></g>
    <g><text text-anchor="middle" x="150.0" y="675.5" font-size="16pt" font-family="Optima, Helvetica, sans-serif" stroke="white" stroke-width="4pt" opacity="0.8">Shark Bay</text><text text-anchor="middle" x="150.0" y="675.5" font-size="16pt" font-family="Optima, Helvetica, sans-serif">Shark Bay</text></g>
    <g><text text-anchor="middle" x="300.0" y="415.7" font-size="16pt" font-family="Optima, Helvetica, sans-serif" stroke="white" stroke-width="4pt" opacity="0.8">Lagnabadalë</text><text text-anchor="middle" x="300.0" y="415.7" font-size="16pt" font-family="Optima, Helvetica, sans-serif">Lagnabadalë</text></g>
    <g><text text-anchor="middle" x="300.0" y="588.9" font-size="16pt" font-family="Optima, Helvetica, sans-serif" stroke="white" stroke-width="4pt" opacity="0.8">Monkeytown</text><text text-anchor="middle" x="300.0" y="588.9" font-size="16pt" font-family="Optima, Helvetica, sans-serif">Monkeytown</text></g>
    <g><text text-anchor="middle" x="300.0" y="762.1" font-size="16pt" font-family="Optima, Helvetica, sans-serif" stroke="white" stroke-width="4pt" opacity="0.8">Giant Lotus</text><text text-anchor="middle" x="300.0" y="762.1" font-size="16pt" font-family="Optima, Helvetica, sans-serif">Giant Lotus</text></g>
    <g><text text-anchor="middle" x="450.0" y="155.9" font-size="16pt" font-family="Optima, Helvetica, sans-serif" stroke="white" stroke-width="4pt" opacity="0.8">Hell Gate</text><text text-anchor="middle" x="450.0" y="155.9" font-size="16pt" font-family="Optima, Helvetica, sans-serif">Hell Gate</text></g>
    <g><text text-anchor="middle" x="450.0" y="329.1" font-size="16pt" font-family="Optima, Helvetica, sans-serif" stroke="white" stroke-width="4pt" opacity="0.8">Pirate Rock</text><text text-anchor="middle" x="450.0" y="329.1" font-size="16pt" font-family="Optima, Helvetica, sans-serif">Pirate Rock</text></g>
    <g><text text-anchor="middle" x="450.0" y="675.5" font-size="16pt" font-family="Optima, Helvetica, sans-serif" stroke="white" stroke-width="4pt" opacity="0.8">Iceland</text><text text-anchor="middle" x="450.0" y="675.5" font-size="16pt" font-family="Optima, Helvetica, sans-serif">Iceland</text></g>
    <g><text text-anchor="middle" x="600.0" y="242.5" font-size="16pt" font-family="Optima, Helvetica, sans-serif" stroke="white" stroke-width="4pt" opacity="0.8">Muspelheim</text><text text-anchor="middle" x="600.0" y="242.5" font-size="16pt" font-family="Optima, Helvetica, sans-serif">Muspelheim</text></g>
    <g><text text-anchor="middle" x="600.0" y="415.7" font-size="16pt" font-family="Optima, Helvetica, sans-serif" stroke="white" stroke-width="4pt" opacity="0.8">Arden</text><text text-anchor="middle" x="600.0" y="415.7" font-size="16pt" font-family="Optima, Helvetica, sans-serif">Arden</text></g>
    <g><text text-anchor="middle" x="600.0" y="588.9" font-size="16pt" font-family="Optima, Helvetica, sans-serif" stroke="white" stroke-width="4pt" opacity="0.8">Anafasi's Tomb</text><text text-anchor="middle" x="600.0" y="588.9" font-size="16pt" font-family="Optima, Helvetica, sans-serif">Anafasi's Tomb</text></g>
    <g><text text-anchor="middle" x="600.0" y="762.1" font-size="16pt" font-family="Optima, Helvetica, sans-serif" stroke="white" stroke-width="4pt" opacity="0.8">Nieflheim</text><text text-anchor="middle" x="600.0" y="762.1" font-size="16pt" font-family="Optima, Helvetica, sans-serif">Nieflheim</text></g>
    <g><text text-anchor="middle" x="750.0" y="155.9" font-size="16pt" font-family="Optima, Helvetica, sans-serif" stroke="white" stroke-width="4pt" opacity="0.8">Nightrealm</text><text text-anchor="middle" x="750.0" y="155.9" font-size="16pt" font-family="Optima, Helvetica, sans-serif">Nightrealm</text></g>
    <g><text text-anchor="middle" x="750.0" y="502.3" font-size="16pt" font-family="Optima, Helvetica, sans-serif" stroke="white" stroke-width="4pt" opacity="0.8">Brood Mother</text><text text-anchor="middle" x="750.0" y="502.3" font-size="16pt" font-family="Optima, Helvetica, sans-serif">Brood Mother</text></g>
    <g><text text-anchor="middle" x="900.0" y="415.7" font-size="16pt" font-family="Optima, Helvetica, sans-serif" stroke="white" stroke-width="4pt" opacity="0.8">Hinia Oot</text><text text-anchor="middle" x="900.0" y="415.7" font-size="16pt" font-family="Optima, Helvetica, sans-serif">Hinia Oot</text></g>
    <g><text text-anchor="middle" x="900.0" y="588.9" font-size="16pt" font-family="Optima, Helvetica, sans-serif" stroke="white" stroke-width="4pt" opacity="0.8">Fresh Air</text><text text-anchor="middle" x="900.0" y="588.9" font-size="16pt" font-family="Optima, Helvetica, sans-serif">Fresh Air</text></g>
    <g><text text-anchor="middle" x="900.0" y="762.1" font-size="16pt" font-family="Optima, Helvetica, sans-serif" stroke="white" stroke-width="4pt" opacity="0.8">Panopticon</text><text text-anchor="middle" x="900.0" y="762.1" font-size="16pt" font-family="Optima, Helvetica, sans-serif">Panopticon</text></g>
    <g><text text-anchor="middle" x="1050.0" y="155.9" font-size="16pt" font-family="Optima, Helvetica, sans-serif" stroke="white" stroke-width="4pt" opacity="0.8">Stormworld</text><text text-anchor="middle" x="1050.0" y="155.9" font-size="16pt" font-family="Optima, Helvetica, sans-serif">Stormworld</text></g>
    <g><text text-anchor="middle" x="1050.0" y="329.1" font-size="16pt" font-family="Optima, Helvetica, sans-serif" stroke="white" stroke-width="4pt" opacity="0.8">Redwood</text><text text-anchor="middle" x="1050.0" y="329.1" font-size="16pt" font-family="Optima, Helvetica, sans-serif">Redwood</text></g>
    <g><text text-anchor="middle" x="1050.0" y="675.5" font-size="16pt" font-family="Optima, Helvetica, sans-serif" stroke="white" stroke-width="4pt" opacity="0.8">Genova</text><text text-anchor="middle" x="1050.0" y="675.5" font-size="16pt" font-family="Optima, Helvetica, sans-serif">Genova</text></g>
  </g>
<text font-size="14pt" x="100" y="-10" font-family="Optima, Helvetica, sans-serif">Legend: • town – ☼ gate</text>
<!-- Source
0101 town gate "Asgard"
0102 empty
0103 empty
0104 town "Shark Bay"
0201 empty
0202 town gate "Lagnabadalë"
0203 town gate "Monkeytown"
0204 town "Giant Lotus"
0301 town gate "Hell Gate"
0302 town "Pirate Rock"
0303 empty
0304 town "Iceland"
0401 town gate "Muspelheim"
0402 town "Arden"
0403 town "Anafasi's Tomb"
0404 town gate "Nieflheim"
0501 town gate "Nightrealm"
0502 empty
0503 town "Brood Mother"
0504 empty
0601 empty
0602 town "Hinia Oot"
0603 town gate "Fresh Air"
0604 town "Panopticon"
0701 town gate "Stormworld"
0702 town gate "Redwood"
0703 empty
0704 town "Genova"
default attributes fill="none" stroke="black" stroke-width="3"
town xml <circle r="10"/>
gate xml <text font-size="20pt" dy="-20px" dx="40px" font-family="Optima, Helvetica, sans-serif" text-anchor="middle">☼</text>
green xml <circle r="48" fill="green" opacity="0.3"/>
orange xml <circle r="48" fill="orange" opacity="0.3"/>
red xml <circle r="48" fill="red" opacity="0.3"/>
text font-size="16pt" dy="15px" font-family="Optima, Helvetica, sans-serif" fill-opacity="1"
label font-size="16pt" font-family="Optima, Helvetica, sans-serif"
glow stroke="white" stroke-width="4pt" opacity="0.8"
other <text font-size="14pt" x="100" y="-10" font-family="Optima, Helvetica, sans-serif">Legend: • town – ☼ gate</text>

-->
</svg>